<?xml version="1.0" standalone="no"?>
<!DOCTYPE svg PUBLIC "-//W3C//DTD SVG 20010904//EN"
 "http://www.w3.org/TR/2001/REC-SVG-20010904/DTD/svg10.dtd">
<svg version="1.0" xmlns="http://www.w3.org/2000/svg"
 width="287.000000pt" height="287.000000pt" viewBox="0 0 287.000000 287.000000"
 preserveAspectRatio="xMidYMid meet">
<metadata>
Created by potrace 1.14, written by Peter Selinger 2001-2017
</metadata>
<g transform="translate(0.000000,287.000000) scale(0.100000,-0.100000)"
fill="#000000" stroke="none">
<path d="M409 1848 c-8 -7 -33 -35 -54 -63 -67 -86 -166 -185 -262 -262 -51
-41 -93 -78 -93 -82 0 -5 34 -34 75 -65 92 -69 234 -211 294 -294 33 -45 48
-59 61 -54 9 4 51 48 92 97 83 101 185 197 271 258 32 23 57 49 57 58 0 10
-21 33 -47 51 -109 75 -214 179 -354 356 -5 6 -13 12 -17 12 -5 0 -15 -6 -23
-12z m79 -128 c85 -68 211 -201 238 -252 22 -42 12 -59 -104 -182 -55 -58
-136 -127 -169 -145 -31 -16 -60 0 -149 80 -88 80 -149 145 -171 187 -17 31
-17 33 1 67 23 43 151 176 225 234 59 46 81 48 129 11z"/>
<path d="M353 1684 c-94 -75 -201 -192 -216 -236 -14 -40 241 -298 294 -298
40 0 262 213 283 273 12 33 -19 79 -118 179 -83 83 -142 128 -167 128 -10 0
-44 -21 -76 -46z m96 -84 c25 -66 25 -70 5 -70 -12 0 -15 -11 -12 -62 2 -51 0
-63 -12 -63 -12 0 -15 14 -15 63 0 51 -3 62 -17 62 -15 0 -14 6 5 65 11 35 22
63 23 62 1 -1 12 -27 23 -57z m-94 -110 c3 -5 -8 -16 -24 -24 -21 -12 -28 -21
-24 -35 12 -48 229 -49 258 -1 9 14 -15 40 -40 44 -11 2 -21 8 -23 15 -7 20
38 4 66 -23 29 -28 21 -49 -26 -68 -81 -32 -237 -18 -283 25 l-22 20 32 29
c31 28 74 37 86 18z m95 -186 c0 -61 -1 -64 -25 -64 -23 0 -24 2 -22 64 2 59
4 63 25 63 20 0 22 -4 22 -63z"/>
<path d="M959 1748 c-4 -12 -3 -628 1 -629 3 -1 42 -2 88 -3 68 -2 82 0 83 13
1 9 2 152 3 319 l1 302 -87 0 c-49 0 -88 -1 -89 -2z"/>
<path d="M1225 1435 c0 -173 2 -316 5 -316 16 -4 457 -5 468 -1 8 3 12 25 12
63 l0 59 -154 0 -154 0 0 65 0 65 117 1 c184 2 166 -5 166 64 l0 60 -141 3
-140 3 -2 59 c0 33 2 60 6 61 4 1 72 2 152 3 l145 1 3 63 3 62 -243 0 -243 0
0 -315z"/>
<path d="M1805 1435 c0 -207 3 -315 10 -316 30 -4 452 -5 463 -1 8 3 12 25 12
63 l0 59 -153 0 -153 0 -2 65 c-3 75 -25 66 166 66 l112 0 1 24 c5 114 17 105
-140 105 l-138 0 -2 60 c-1 51 2 60 16 61 10 1 79 2 153 3 l135 1 3 63 3 62
-243 0 -243 0 0 -315z"/>
<path d="M2384 1433 l1 -318 230 -1 c127 0 235 1 240 3 6 2 11 30 11 63 l0 60
-153 0 -153 0 0 65 c0 55 3 65 18 65 9 1 72 1 140 1 108 0 122 2 123 17 0 9 2
38 2 65 l2 47 -143 0 -143 0 3 62 3 63 148 0 c81 0 148 2 148 5 1 3 2 31 3 63
l1 57 -241 0 -242 0 2 -317z"/>
<path d="M552 1108 c-18 -18 -14 -45 8 -51 10 -3 24 1 31 9 13 15 4 48 -10 40
-5 -4 -11 -1 -13 4 -2 7 -8 6 -16 -2z"/>
</g>
</svg>
