<svg width="456" height="106" viewBox="0 0 456 106" fill="none" xmlns="http://www.w3.org/2000/svg">
<path d="M27.7173 54.2019L31.6083 47.658L28.9071 34.9319M25.5002 31.0893L28.9071 34.9319M28.9071 34.9319L37.8297 44.9959M37.8297 44.9959L47.5636 55.9748M37.8297 44.9959L38.456 48.0262M47.0355 65.9648L41.5899 62.9463L41.4102 62.3193L38.456 48.0262M38.456 48.0262L33.6487 56.6988L34.9388 64.0053M25.1608 27.4209C26.2747 28.0383 26.6771 29.4418 26.0597 30.5557C25.9752 30.7082 25.8759 30.8473 25.7648 30.9723C25.0635 31.7607 23.8863 31.9876 22.9248 31.4546C21.8109 30.8372 21.4085 29.4337 22.0259 28.3198C22.6433 27.2059 24.0469 26.8034 25.1608 27.4209ZM50.1613 55.5692C51.2752 56.1866 51.6777 57.5902 51.0602 58.7041C50.4428 59.8179 49.0393 60.2204 47.9254 59.603C46.8115 58.9855 46.409 57.582 47.0265 56.4681C47.1855 56.1813 47.3966 55.9416 47.6415 55.7544C48.3476 55.2146 49.3343 55.1108 50.1613 55.5692ZM27.6274 53.8884C26.5135 53.271 25.1099 53.6734 24.4925 54.7873C23.8751 55.9012 24.2775 57.3047 25.3914 57.9222C26.5053 58.5396 27.9088 58.1372 28.5263 57.0233C29.0881 56.0096 28.8054 54.7561 27.9106 54.0734C27.9062 54.0701 27.9018 54.0668 27.8975 54.0635C27.8919 54.0593 27.8863 54.0552 27.8807 54.0511C27.8009 53.9922 27.7164 53.9378 27.6274 53.8884ZM36.4843 64.0711C37.5982 64.6885 38.0006 66.092 37.3832 67.2059C36.7657 68.3198 35.3622 68.7223 34.2483 68.1048C33.1344 67.4874 32.732 66.0839 33.3494 64.97C33.7152 64.3101 34.3568 63.8999 35.0506 63.8035C35.5281 63.7372 36.0302 63.8194 36.4843 64.0711ZM50.0586 65.2676C51.1725 65.8851 51.5749 67.2886 50.9575 68.4025C50.34 69.5164 48.9365 69.9188 47.8226 69.3014C46.7087 68.6839 46.3063 67.2804 46.9237 66.1665C46.9437 66.1305 46.9645 66.0952 46.9861 66.0606C47.6317 65.0276 48.9807 64.6702 50.0586 65.2676Z" stroke="black" stroke-width="2.48201"/>
<path d="M56.9687 19.4849L60.6903 26.1266L73.062 30.1503M78.0933 29.1212L73.062 30.1503M73.062 30.1503L59.885 32.8456M59.885 32.8456L45.5101 35.7859M59.885 32.8456L56.9476 31.8729M37.1225 30.3336L42.4595 27.1268L43.0923 27.2846L56.9476 31.8729M56.9476 31.8729L51.8405 23.3733L44.8679 20.8372M81.44 30.6615C80.3483 31.3174 78.9316 30.9642 78.2757 29.8725C78.1859 29.7231 78.115 29.5676 78.0624 29.4088C77.7302 28.4073 78.1223 27.2744 79.0646 26.7082C80.1563 26.0523 81.573 26.4055 82.2289 27.4972C82.8849 28.5888 82.5316 30.0055 81.44 30.6615ZM44.5625 38.2384C43.4709 38.8944 42.0541 38.5411 41.3982 37.4495C40.7423 36.3578 41.0955 34.9411 42.1872 34.2852C43.2788 33.6292 44.6955 33.9824 45.3515 35.0741C45.5204 35.3552 45.6224 35.6579 45.6621 35.9636C45.7765 36.845 45.3731 37.7514 44.5625 38.2384ZM57.2851 19.5638C58.3768 18.9079 58.73 17.4912 58.074 16.3995C57.4181 15.3078 56.0014 14.9546 54.9097 15.6106C53.8181 16.2665 53.4648 17.6832 54.1208 18.7749C54.7177 19.7683 55.9446 20.1502 56.9833 19.7166C56.9883 19.7145 56.9934 19.7124 56.9984 19.7102C57.0048 19.7075 57.0112 19.7047 57.0176 19.702C57.1084 19.6623 57.1978 19.6163 57.2851 19.5638ZM44.0382 22.1428C42.9465 22.7988 41.5298 22.4455 40.8739 21.3539C40.2179 20.2622 40.5712 18.8455 41.6628 18.1896C42.7545 17.5336 44.1712 17.8868 44.8272 18.9785C45.2157 19.6252 45.2502 20.3859 44.9867 21.035C44.8055 21.4817 44.4832 21.8755 44.0382 22.1428ZM36.2148 33.3002C35.1232 33.9562 33.7064 33.603 33.0505 32.5113C32.3946 31.4196 32.7478 30.0029 33.8395 29.347C34.9311 28.691 36.3478 29.0443 37.0038 30.1359C37.025 30.1713 37.0452 30.2069 37.0643 30.2429C37.6361 31.3185 37.2711 32.6655 36.2148 33.3002Z" stroke="black" stroke-width="2.48201"/>
<path d="M72.5331 62.4654L64.9204 62.3677L55.2499 71.07M53.6255 75.9417L55.2499 71.07M55.2499 71.07L59.5042 58.3108M59.5042 58.3108L64.1453 44.3916M59.5042 58.3108L61.8154 56.2532M73.0609 39.8539L73.1696 46.0791L72.7165 46.5483L61.8154 56.2532M61.8154 56.2532L71.7297 56.0802L77.4124 51.3097M50.6183 78.0699C50.596 76.7966 51.6103 75.7463 52.8837 75.724C53.0579 75.721 53.228 75.7374 53.3919 75.7712C54.4253 75.9843 55.2104 76.8903 55.2296 77.9894C55.2518 79.2628 54.2375 80.3131 52.9642 80.3354C51.6908 80.3576 50.6405 79.3433 50.6183 78.0699ZM62.4952 42.3447C62.4729 41.0713 63.4872 40.021 64.7606 39.9988C66.0339 39.9765 67.0842 40.9908 67.1065 42.2642C67.1287 43.5375 66.1144 44.5878 64.8411 44.6101C64.5131 44.6158 64.2 44.5528 63.9154 44.4343C63.0949 44.0927 62.5117 43.2901 62.4952 42.3447ZM72.3065 62.7C72.3288 63.9734 73.3791 64.9877 74.6524 64.9654C75.9258 64.9432 76.9401 63.8929 76.9179 62.6195C76.8956 61.3462 75.8453 60.3319 74.572 60.3541C73.4132 60.3743 72.469 61.2459 72.3252 62.3623C72.3245 62.3677 72.3238 62.3731 72.3231 62.3786C72.3223 62.3855 72.3215 62.3924 72.3207 62.3993C72.3096 62.4978 72.3048 62.5982 72.3065 62.7ZM76.6965 49.9384C76.6743 48.665 77.6885 47.6147 78.9619 47.5925C80.2353 47.5703 81.2856 48.5845 81.3078 49.8579C81.3301 51.1313 80.3158 52.1816 79.0424 52.2038C78.2881 52.217 77.612 51.8664 77.1816 51.3137C76.8855 50.9334 76.7056 50.4574 76.6965 49.9384ZM70.9456 37.5844C70.9234 36.311 71.9376 35.2608 73.211 35.2385C74.4844 35.2163 75.5347 36.2306 75.5569 37.5039C75.5792 38.7773 74.5649 39.8276 73.2915 39.8498C73.2503 39.8506 73.2093 39.8502 73.1686 39.8488C71.9512 39.8061 70.9671 38.8166 70.9456 37.5844Z" stroke="black" stroke-width="2.48201"/>
<path d="M113.136 11.1318L113.365 11.3606C113.228 17.3997 113.09 23.4845 113.09 29.5236C113.09 31.2621 113.09 33.2293 113.594 34.6476C114.188 36.3861 115.424 37.4841 117.574 37.4841C118.398 37.4841 119.679 37.3469 120.731 36.2946C122.149 34.8764 122.149 32.5888 122.149 29.2491C122.149 21.1512 122.012 16.6219 121.829 11.4521L122.058 11.2691L130.43 11.1318L130.704 11.3148L130.476 30.1641L130.43 31.9026C130.247 35.2881 130.064 39.3142 126.312 41.922C124.345 43.2945 121.097 44.2552 116.934 44.2552C113.639 44.2552 108.332 43.6605 105.633 40.2749C103.483 37.6214 103.391 34.1901 103.3 31.3078V29.8896C103.3 20.5107 103.254 18.6807 103.117 11.4978L103.3 11.2691C107.555 11.2691 108.698 11.2691 113.136 11.1318ZM159.846 42.6082L159.617 42.8827C157.146 43.6147 155.042 44.2552 151.656 44.2552C146.121 44.2552 142.827 42.837 140.539 41.0069C136.101 37.4384 135.049 31.9483 135.049 27.8308C135.049 16.5304 141.774 10.5828 151.473 10.5828C155.499 10.5828 157.833 11.5436 159.708 12.2756L159.891 12.5959C159.617 15.7984 159.571 16.8049 159.48 20.1447L159.159 20.3277C158.244 19.5499 156.552 18.0859 153.303 18.0859C149.689 18.0859 145.389 20.3277 145.389 27.419C145.389 34.8306 150.009 36.7521 153.715 36.7521C156.963 36.7521 158.839 35.3796 159.8 34.6934L160.166 34.8764L159.846 42.6082ZM163.987 34.9221L164.399 34.7849C164.719 35.0594 165.039 35.3339 165.405 35.5626C167.235 36.8894 170.072 37.4841 172.13 37.4841C176.248 37.4841 176.66 35.2424 176.66 34.4646C176.66 32.6803 174.784 31.9026 173.411 31.3078L171.124 30.3928C167.967 28.9746 163.667 27.0073 163.667 20.7395C163.667 18.2232 164.261 15.5696 166.595 13.3736C168.791 11.3606 171.627 10.5371 175.745 10.5371C180.411 10.5371 183.111 11.7266 184.483 12.3214L184.666 12.5959L184.254 19.7329L183.843 19.9159C183.202 19.4127 182.562 18.9094 181.83 18.4977C180.274 17.5827 178.398 17.1252 176.934 17.1252C175.241 17.1252 174.601 17.5827 174.281 17.8114C173.732 18.2689 173.274 19.0924 173.274 19.9159C173.274 21.6545 175.333 22.478 176.339 22.8897L178.856 23.942C179.634 24.2622 181.784 25.04 183.705 26.8243C186.039 28.9746 186.359 31.7196 186.359 33.4124C186.359 36.4776 184.941 38.7652 184.529 39.4057C181.83 43.386 177.163 44.2552 172.542 44.2552C167.967 44.2552 165.359 43.2487 164.033 42.7455L163.667 42.288C163.895 38.8109 163.941 38.2619 163.987 34.9221ZM214.13 42.6082L213.901 42.8827C211.431 43.6147 209.326 44.2552 205.94 44.2552C200.405 44.2552 197.111 42.837 194.823 41.0069C190.385 37.4384 189.333 31.9483 189.333 27.8308C189.333 16.5304 196.058 10.5828 205.757 10.5828C209.783 10.5828 212.117 11.5436 213.993 12.2756L214.176 12.5959C213.901 15.7984 213.855 16.8049 213.764 20.1447L213.444 20.3277C212.529 19.5499 210.836 18.0859 207.587 18.0859C203.973 18.0859 199.673 20.3277 199.673 27.419C199.673 34.8306 204.293 36.7521 207.999 36.7521C211.248 36.7521 213.123 35.3796 214.084 34.6934L214.45 34.8764L214.13 42.6082Z" fill="black"/>
<path d="M107.993 53.5511L108.267 53.8251C108.15 56.4476 108.072 59.5398 108.072 66.2723C108.072 73.7875 108.15 76.9972 108.385 81.0288L108.15 81.3028C106.428 81.342 105.88 81.342 103.805 81.4203L103.57 81.1463C103.649 78.7586 103.727 76.6841 103.727 71.6347C103.727 65.7243 103.727 59.8529 103.453 53.9816L103.649 53.6685C105.371 53.6685 105.997 53.6685 107.993 53.5511ZM131.673 77.8192L131.908 78.0932C131.791 79.424 131.791 79.698 131.712 81.0288L131.438 81.3028C123.806 81.3028 122.592 81.342 115.155 81.4203L114.959 81.1463C115.077 78.054 115.194 75.9404 115.194 68.7773C115.194 62.2015 115.194 58.4438 114.92 53.9425L115.155 53.6685C122.866 53.6293 124.393 53.6293 131.595 53.5511L131.83 53.8251C131.712 54.9993 131.634 55.469 131.556 56.8781L131.321 57.1521C126.271 56.9956 124.588 56.9956 119.617 56.9564C119.5 60.5575 119.5 61.6926 119.5 65.2937C124.314 65.3328 125.802 65.2937 130.577 65.2154L130.773 65.4894C130.616 66.8594 130.616 67.2508 130.577 68.5034L130.342 68.7773C125.802 68.6599 124.823 68.6599 119.5 68.6599C119.422 73.2004 119.461 74.2964 119.5 78.0149C125.41 78.0149 126.624 78.0149 131.673 77.8192ZM152.888 77.8192L153.123 78.0932C153.005 79.424 153.005 79.698 152.927 81.0288L152.653 81.3028C145.02 81.3028 143.807 81.342 136.37 81.4203L136.174 81.1463C136.292 78.054 136.409 75.9404 136.409 68.7773C136.409 62.2015 136.409 58.4438 136.135 53.9425L136.37 53.6685C144.081 53.6293 145.607 53.6293 152.81 53.5511L153.044 53.8251C152.927 54.9993 152.849 55.469 152.77 56.8781L152.536 57.1521C147.486 56.9956 145.803 56.9956 140.832 56.9564C140.715 60.5575 140.715 61.6926 140.715 65.2937C145.529 65.3328 147.016 65.2937 151.792 65.2154L151.988 65.4894C151.831 66.8594 151.831 67.2508 151.792 68.5034L151.557 68.7773C147.016 68.6599 146.038 68.6599 140.715 68.6599C140.636 73.2004 140.675 74.2964 140.715 78.0149C146.625 78.0149 147.838 78.0149 152.888 77.8192ZM174.103 77.8192L174.337 78.0932C174.22 79.424 174.22 79.698 174.142 81.0288L173.868 81.3028C166.235 81.3028 165.022 81.342 157.585 81.4203L157.389 81.1463C157.506 78.054 157.624 75.9404 157.624 68.7773C157.624 62.2015 157.624 58.4438 157.35 53.9425L157.585 53.6685C165.296 53.6293 166.822 53.6293 174.024 53.5511L174.259 53.8251C174.142 54.9993 174.063 55.469 173.985 56.8781L173.75 57.1521C168.701 56.9956 167.018 56.9956 162.047 56.9564C161.929 60.5575 161.929 61.6926 161.929 65.2937C166.744 65.3328 168.231 65.2937 173.007 65.2154L173.202 65.4894C173.046 66.8594 173.046 67.2508 173.007 68.5034L172.772 68.7773C168.231 68.6599 167.253 68.6599 161.929 68.6599C161.851 73.2004 161.89 74.2964 161.929 78.0149C167.84 78.0149 169.053 78.0149 174.103 77.8192ZM198.174 64.7849L200.131 65.646C202.989 66.8985 206.786 68.5425 206.786 73.5527C206.786 77.9366 203.537 81.89 196.726 81.89C192.577 81.89 189.915 80.6374 188.976 80.1677L188.819 79.8937C188.976 78.5237 189.015 77.78 189.132 76.2926L189.524 76.1361C190.502 76.8015 192.773 78.4455 196.413 78.4455C200.445 78.4455 202.128 76.3709 202.128 74.0224C202.128 71.2824 199.857 70.2256 197.313 69.2471L195.356 68.3859C192.577 67.0942 188.858 65.4111 188.858 60.6358C188.858 59.1875 189.25 57.7001 190.072 56.5259C191.872 53.9425 195.121 53.0814 198.292 53.0814C201.384 53.0814 203.263 53.6685 205.337 54.3339L205.533 54.647C205.376 56.1344 205.337 56.6824 205.22 58.0915L204.907 58.2481C203.224 57.387 201.384 56.4476 198.448 56.4476C195.2 56.4476 193.164 57.9741 193.164 60.2835C193.164 62.0449 194.338 62.8669 195.16 63.3757C195.669 63.6889 195.826 63.7672 198.174 64.7849ZM219.78 77.9757L220.054 78.2106C219.937 79.5023 219.937 79.7763 219.898 80.9114L219.702 81.1463C218.88 81.342 218.215 81.4985 216.767 81.4985C215.827 81.4985 213.361 81.4985 212.148 79.4631C211.443 78.328 211.443 77.3886 211.443 72.7698L211.521 64.1586C210.152 64.1586 210.112 64.1977 208.703 64.2369L208.547 64.002C208.625 62.7495 208.625 62.4363 208.625 61.1838L208.86 60.9489C209.721 60.9489 210.23 60.9881 211.521 60.9489C211.482 60.1269 211.482 59.2658 211.482 58.4438C211.443 57.7001 211.404 56.9564 211.365 56.2127L211.561 55.9387C213.322 55.5082 213.753 55.3907 215.553 54.8428L215.827 55.0385C215.71 57.6218 215.671 58.1307 215.671 60.9881C217.315 60.9489 217.784 60.9489 220.015 60.8706L220.211 61.1055C220.133 62.1232 220.094 62.5537 220.094 63.8846L219.898 64.1194C217.941 64.0803 217.706 64.0412 215.631 64.0412L215.553 71.3216C215.592 71.7913 215.592 74.0224 215.592 74.5704C215.592 77.4278 215.945 78.328 217.902 78.328C218.724 78.328 219.35 78.1323 219.78 77.9757ZM240.427 60.7924L240.662 61.0663C240.584 64.0412 240.544 66.8202 240.544 69.9908C240.544 74.8052 240.662 77.7018 240.74 79.3849C240.74 79.9329 240.779 80.4808 240.818 81.0288L240.662 81.2637C238.783 81.3028 238.47 81.342 236.669 81.4203L236.435 81.1854L236.474 79.5414C235.613 80.1677 233.538 81.7725 230.328 81.7725C228.802 81.7725 227.119 81.4203 225.866 80.4417C223.361 78.4063 223.361 75.0792 223.322 72.0261V69.5993C223.244 64.002 223.244 63.3757 223.126 61.2621L223.322 60.9881C225.162 60.9489 225.514 60.9489 227.354 60.7924L227.588 61.0663L227.432 69.6385C227.432 70.6953 227.393 71.4782 227.432 73.357C227.471 75.0009 227.549 78.5237 231.503 78.5237C233.812 78.5237 235.456 77.232 236.395 76.4883C236.435 74.3747 236.435 72.5741 236.435 70.3039C236.435 64.8631 236.395 63.7672 236.161 61.2229L236.395 60.9489C238.196 60.9098 238.626 60.9098 240.427 60.7924ZM259.098 51.1243L259.294 50.8894C261.29 50.5371 261.681 50.4588 263.443 50.0674L263.717 50.3023C263.443 55.743 263.404 65.4503 263.404 69.3645C263.404 75.4315 263.56 78.328 263.717 81.0288L263.521 81.3028C261.799 81.3028 261.329 81.342 259.529 81.4203L259.255 81.1854L259.333 79.7371C258.394 80.4417 256.789 81.6942 253.931 81.6942C248.725 81.6942 245.124 77.5843 245.124 71.6347C245.124 67.3682 246.925 64.6674 248.569 63.2192C251.426 60.6358 255.145 60.5184 257.18 60.5184C258.002 60.5184 258.394 60.5184 259.45 60.5966C259.49 55.743 259.294 53.3945 259.098 51.1243ZM259.294 76.4883C259.372 71.3607 259.372 70.1865 259.333 63.7672C258.668 63.728 258.198 63.6497 257.376 63.6497C256.162 63.6497 253.579 63.728 251.7 65.4894C250.839 66.3114 249.43 68.1511 249.43 71.6347C249.43 73.8658 250.056 75.4706 250.878 76.4492C251.583 77.2712 252.875 78.2106 254.91 78.2106C257.298 78.2106 258.746 76.9581 259.294 76.4883ZM284.932 76.3318L285.245 76.5275C285.05 78.0932 285.011 78.4846 284.932 80.0111L284.697 80.2851C284.032 80.6374 281.918 81.7725 278.435 81.7725C272.015 81.7725 267.984 78.0932 267.984 71.2824C267.984 64.002 272.368 60.4401 277.495 60.4401C280.587 60.4401 282.74 61.7318 283.915 63.1409C286.146 65.8025 286.067 69.6776 286.028 71.3999L285.754 71.6347C279.648 71.5956 278.591 71.5956 272.172 71.6347C272.211 73.0047 272.328 74.9227 273.659 76.5275C275.264 78.4455 277.495 78.6412 278.709 78.6412C279.844 78.6412 281.018 78.4455 282.114 78.054C283.562 77.4669 284.423 76.7623 284.932 76.3318ZM281.997 68.6208C281.957 68.0728 281.918 67.2117 281.605 66.3114C280.822 64.1586 279.1 63.2583 277.339 63.2583C275.147 63.2583 272.563 64.7457 272.172 68.6599C276.908 68.6991 278.395 68.6599 281.997 68.6208ZM307.791 81.0288L307.556 81.2637C305.677 81.3028 305.442 81.3028 303.642 81.4203L303.368 81.1463C303.368 80.7157 303.407 80.2851 303.407 79.8546C303.446 77.9366 303.446 76.0186 303.446 74.1007C303.446 68.0728 303.407 67.6814 303.211 66.8594C302.468 63.8846 300.236 63.8846 299.688 63.8846C297.34 63.8846 295.539 65.2546 294.483 66.0765C294.443 72.8873 294.522 76.4492 294.796 81.0288L294.561 81.2637C292.643 81.3028 292.33 81.3028 290.451 81.4203L290.255 81.1463C290.294 78.9543 290.373 76.8406 290.373 73.9441C290.373 67.6814 290.099 64.3543 289.903 61.7318L290.138 61.4578C292.095 61.1055 292.447 61.0272 294.287 60.6749L294.561 60.9489L294.522 62.9843C295.539 62.2798 297.966 60.5575 301.411 60.5575C302.389 60.5575 303.603 60.7141 304.66 61.3012C305.677 61.8883 306.499 62.7886 306.93 63.8454C307.439 65.0197 307.478 66.194 307.517 68.6208V73.2004C307.634 77.78 307.673 79.5414 307.791 81.0288ZM321.726 77.9757L322 78.2106C321.882 79.5023 321.882 79.7763 321.843 80.9114L321.648 81.1463C320.826 81.342 320.16 81.4985 318.712 81.4985C317.772 81.4985 315.307 81.4985 314.093 79.4631C313.389 78.328 313.389 77.3886 313.389 72.7698L313.467 64.1586C312.097 64.1586 312.058 64.1977 310.649 64.2369L310.492 64.002C310.57 62.7495 310.57 62.4363 310.57 61.1838L310.805 60.9489C311.666 60.9489 312.175 60.9881 313.467 60.9489C313.428 60.1269 313.428 59.2658 313.428 58.4438C313.389 57.7001 313.349 56.9564 313.31 56.2127L313.506 55.9387C315.267 55.5082 315.698 55.3907 317.498 54.8428L317.772 55.0385C317.655 57.6218 317.616 58.1307 317.616 60.9881C319.26 60.9489 319.73 60.9489 321.961 60.8706L322.156 61.1055C322.078 62.1232 322.039 62.5537 322.039 63.8846L321.843 64.1194C319.886 64.0803 319.651 64.0412 317.577 64.0412L317.498 71.3216C317.538 71.7913 317.538 74.0224 317.538 74.5704C317.538 77.4278 317.89 78.328 319.847 78.328C320.669 78.328 321.295 78.1323 321.726 77.9757ZM344.094 81.3811L337.205 81.4203L337.01 81.1463C337.088 79.2674 337.127 77.4669 337.127 73.905C337.127 72.2219 337.166 64.0412 337.166 62.2015C337.166 58.0915 337.049 55.9779 336.892 53.9425L337.088 53.6685L342.333 53.5902C343.116 53.5511 344.329 53.5511 345.386 53.5511C347.695 53.5511 350.161 53.6293 352.118 54.7645C353.567 55.5865 355.211 57.2304 355.211 60.1269C355.211 61.4969 354.819 65.4111 349.378 66.742C350.279 66.7811 351.57 66.8202 352.98 67.4465C356.346 68.9339 356.698 71.9087 356.698 73.357C356.698 76.9581 354.467 79.5023 351.336 80.6374C349.261 81.3811 347.187 81.3811 344.094 81.3811ZM342.372 68.7382L341.433 68.7773C341.433 73.2395 341.433 73.905 341.589 78.1715H342.333C345.269 78.1715 347.656 78.2106 349.183 77.5843C351.062 76.8798 352.118 75.2358 352.118 73.2787C352.118 68.6991 347.069 68.6599 345.19 68.6599C344.838 68.6599 344.486 68.6599 342.372 68.7382ZM341.433 56.7999V65.4894C344.955 65.5286 347.656 65.4894 349.3 64.1977C350.279 63.3757 350.905 62.084 350.905 60.7924C350.905 59.7355 350.474 58.7178 349.809 58.0133C348.439 56.6824 346.012 56.6824 345.112 56.6824C343.859 56.6824 342.646 56.7216 341.433 56.7999ZM370.594 64.824L370.32 65.0197C369.928 64.8631 369.419 64.6674 368.754 64.6674C368.01 64.6674 367.462 64.9414 367.11 65.1763C365.505 66.3114 365.505 68.0336 365.505 72.1044C365.505 76.5275 365.622 78.8369 365.779 81.0288L365.583 81.3028C363.744 81.3028 363.313 81.342 361.434 81.4203L361.239 81.1854C361.278 78.2106 361.317 75.5098 361.317 71.8696C361.317 65.6068 361.199 64.002 360.965 61.7318L361.199 61.4578C362.687 61.1838 363.626 60.9881 365.27 60.6749L365.505 60.9098L365.309 64.2369C365.779 62.9843 366.758 60.4792 370.085 60.4792C370.594 60.4792 370.868 60.5184 371.181 60.5966L371.337 60.8315C370.946 62.7103 370.868 63.1017 370.594 64.824ZM389.186 69.3645V73.2395C389.186 78.0932 389.225 78.5237 389.421 81.068L389.225 81.2637C387.386 81.3028 387.073 81.342 385.272 81.4203L385.116 81.1854L385.155 79.7763C384.411 80.3634 382.65 81.7725 379.675 81.7725C375.761 81.7725 373.021 79.1109 373.021 75.2358C373.021 69.9908 377.405 68.3076 384.45 67.4857L385.116 67.4074C385.116 66.3505 385.116 65.6068 384.763 64.9806C384.372 64.276 383.472 63.5323 381.514 63.5323C378.97 63.5323 377.209 64.3151 375.565 65.0197L375.252 64.824C375.33 63.0235 375.33 62.7886 375.369 61.9666L375.604 61.7318C377.796 60.9489 380.066 60.4401 382.376 60.4401C385.272 60.4401 388.09 61.4186 388.912 64.4717C389.186 65.5677 389.186 67.7205 389.186 69.3645ZM385.155 70.3039L384.802 70.3822C380.849 70.9693 377.17 71.5173 377.17 75.0009C377.17 75.1967 377.17 78.5629 380.888 78.5629C383.315 78.5629 384.724 77.232 385.155 76.8406V70.3039ZM412.221 81.0288L411.986 81.2637C410.107 81.3028 409.872 81.3028 408.072 81.4203L407.798 81.1463C407.798 80.7157 407.837 80.2851 407.837 79.8546C407.876 77.9366 407.876 76.0186 407.876 74.1007C407.876 68.0728 407.837 67.6814 407.641 66.8594C406.898 63.8846 404.666 63.8846 404.118 63.8846C401.77 63.8846 399.969 65.2546 398.913 66.0765C398.873 72.8873 398.952 76.4492 399.226 81.0288L398.991 81.2637C397.073 81.3028 396.76 81.3028 394.881 81.4203L394.685 81.1463C394.724 78.9543 394.803 76.8406 394.803 73.9441C394.803 67.6814 394.529 64.3543 394.333 61.7318L394.568 61.4578C396.525 61.1055 396.877 61.0272 398.717 60.6749L398.991 60.9489L398.952 62.9843C399.969 62.2798 402.396 60.5575 405.841 60.5575C406.819 60.5575 408.033 60.7141 409.089 61.3012C410.107 61.8883 410.929 62.7886 411.36 63.8454C411.869 65.0197 411.908 66.194 411.947 68.6208V73.2004C412.064 77.78 412.103 79.5414 412.221 81.0288ZM431.871 76.4883L432.184 76.6449C432.027 78.328 431.988 78.5237 431.871 80.1286L431.597 80.4026C430.461 80.9505 428.935 81.7334 426.195 81.7334C420.284 81.7334 416.449 77.4669 416.449 71.3607C416.449 65.1371 420.206 60.4401 426.273 60.4401C428.817 60.4401 430.618 61.2621 431.636 61.6926L431.792 61.9666C431.636 63.3757 431.597 63.8846 431.518 65.0588L431.205 65.2154C429.913 64.276 428.426 63.6889 426.86 63.6889C423.612 63.6889 420.754 66.194 420.754 71.2042C420.754 76.5275 423.768 78.4455 426.821 78.4455C429.483 78.4455 431.127 77.0755 431.871 76.4883ZM452.968 81.0288L452.734 81.2637C450.855 81.3028 450.62 81.3028 448.819 81.4203L448.545 81.1463L448.584 79.8546C448.624 77.8192 448.624 75.7446 448.624 73.7093L448.584 69.521C448.584 68.6208 448.584 67.7205 448.389 66.8594C447.958 65.0588 446.862 63.8846 444.866 63.8846C442.635 63.8846 440.913 65.1371 439.621 66.0765C439.582 72.8873 439.66 76.4492 439.895 81.0288L439.699 81.2637C437.899 81.3028 437.429 81.3028 435.511 81.4203L435.315 81.1463C435.394 78.3672 435.511 74.8444 435.511 67.3291C435.511 64.0412 435.472 60.7532 435.433 57.4653C435.354 54.0208 435.237 52.8856 435.12 51.1243L435.315 50.8894C437.194 50.5763 437.82 50.4588 439.582 50.0674L439.817 50.3414C439.582 54.5296 439.582 58.757 439.582 62.9843C440.834 62.1623 443.3 60.5575 446.588 60.5575C447.489 60.5575 448.389 60.6749 449.211 61.0272C450.972 61.7318 452.029 63.1409 452.42 64.7457C452.616 65.5286 452.616 65.9983 452.694 68.6208V73.2004L452.734 75.0401C452.812 78.328 452.812 78.876 452.968 81.0288Z" fill="black"/>
</svg>
