<svg width="456" height="105" viewBox="0 0 456 105" fill="none" xmlns="http://www.w3.org/2000/svg">
<path d="M27.7927 53.737L31.6837 47.1931L28.9825 34.4671M25.5756 30.6244L28.9825 34.4671M28.9825 34.4671L37.9051 44.5311M37.9051 44.5311L47.639 55.51M37.9051 44.5311L38.5315 47.5613M47.1109 65.5L41.6654 62.4814L41.4856 61.8545L38.5315 47.5613M38.5315 47.5613L33.7242 56.2339L35.0142 63.5405M25.2362 26.956C26.3501 27.5734 26.7525 28.9769 26.1351 30.0908C26.0506 30.2433 25.9514 30.3824 25.8402 30.5074C25.1389 31.2958 23.9617 31.5227 23.0002 30.9897C21.8863 30.3723 21.4839 28.9688 22.1013 27.8549C22.7188 26.741 24.1223 26.3385 25.2362 26.956ZM50.2367 55.1043C51.3506 55.7218 51.7531 57.1253 51.1356 58.2392C50.5182 59.3531 49.1147 59.7555 48.0008 59.1381C46.8869 58.5206 46.4844 57.1171 47.1019 56.0032C47.2609 55.7164 47.472 55.4767 47.7169 55.2895C48.423 54.7497 49.4097 54.6459 50.2367 55.1043ZM27.7028 53.4235C26.5889 52.8061 25.1854 53.2086 24.5679 54.3225C23.9505 55.4364 24.3529 56.8399 25.4668 57.4573C26.5807 58.0748 27.9842 57.6723 28.6017 56.5584C29.1636 55.5448 28.8808 54.2913 27.986 53.6086C27.9816 53.6052 27.9773 53.6019 27.9729 53.5986C27.9673 53.5945 27.9618 53.5903 27.9562 53.5862C27.8763 53.5273 27.7918 53.4729 27.7028 53.4235ZM36.5597 63.6062C37.6736 64.2236 38.076 65.6272 37.4586 66.7411C36.8412 67.8549 35.4376 68.2574 34.3237 67.64C33.2098 67.0225 32.8074 65.619 33.4248 64.5051C33.7906 63.8453 34.4322 63.4351 35.126 63.3386C35.6035 63.2723 36.1056 63.3545 36.5597 63.6062ZM50.134 64.8027C51.2479 65.4202 51.6503 66.8237 51.0329 67.9376C50.4155 69.0515 49.0119 69.454 47.898 68.8365C46.7841 68.2191 46.3817 66.8155 46.9991 65.7016C47.0191 65.6656 47.0399 65.6303 47.0615 65.5957C47.7071 64.5628 49.0562 64.2053 50.134 64.8027Z" stroke="white" stroke-width="2.48201"/>
<path d="M57.0441 19.0201L60.7658 25.6617L73.1374 29.6855M78.1687 28.6564L73.1374 29.6855M73.1374 29.6855L59.9604 32.3807M59.9604 32.3807L45.5855 35.321M59.9604 32.3807L57.023 31.408M37.1979 29.8687L42.5349 26.662L43.1677 26.8198L57.023 31.408M57.023 31.408L51.9159 22.9084L44.9433 20.3724M81.5154 30.1966C80.4237 30.8525 79.007 30.4993 78.3511 29.4077C78.2613 29.2583 78.1904 29.1028 78.1378 28.944C77.8056 27.9425 78.1977 26.8095 79.14 26.2433C80.2317 25.5874 81.6484 25.9406 82.3043 27.0323C82.9603 28.124 82.607 29.5407 81.5154 30.1966ZM44.6379 37.7736C43.5463 38.4295 42.1296 38.0763 41.4736 36.9846C40.8177 35.8929 41.1709 34.4762 42.2626 33.8203C43.3542 33.1643 44.7709 33.5176 45.4269 34.6092C45.5958 34.8904 45.6978 35.193 45.7375 35.4987C45.8519 36.3801 45.4485 37.2865 44.6379 37.7736ZM57.3605 19.099C58.4522 18.443 58.8054 17.0263 58.1495 15.9346C57.4935 14.843 56.0768 14.4897 54.9851 15.1457C53.8935 15.8016 53.5402 17.2183 54.1962 18.31C54.7931 19.3034 56.02 19.6853 57.0587 19.2517C57.0637 19.2496 57.0688 19.2475 57.0738 19.2453C57.0802 19.2426 57.0866 19.2399 57.093 19.2371C57.1839 19.1974 57.2732 19.1514 57.3605 19.099ZM44.1136 21.678C43.022 22.3339 41.6052 21.9807 40.9493 20.889C40.2934 19.7973 40.6466 18.3806 41.7383 17.7247C42.8299 17.0687 44.2466 17.422 44.9026 18.5136C45.2911 19.1603 45.3256 19.9211 45.0622 20.5702C44.8809 21.0168 44.5586 21.4106 44.1136 21.678ZM36.2902 32.8354C35.1986 33.4913 33.7818 33.1381 33.1259 32.0464C32.47 30.9547 32.8232 29.538 33.9149 28.8821C35.0065 28.2262 36.4232 28.5794 37.0792 29.671C37.1004 29.7064 37.1206 29.7421 37.1397 29.778C37.7115 30.8536 37.3466 32.2007 36.2902 32.8354Z" stroke="white" stroke-width="2.48201"/>
<path d="M72.6085 62.0005L64.9958 61.9028L55.3253 70.6051M53.7009 75.4768L55.3253 70.6051M55.3253 70.6051L59.5796 57.8459M59.5796 57.8459L64.2207 43.9267M59.5796 57.8459L61.8908 55.7883M73.1363 39.389L73.245 45.6143L72.7919 46.0834L61.8908 55.7883M61.8908 55.7883L71.8051 55.6153L77.4877 50.8448M50.6936 77.6051C50.6714 76.3317 51.6857 75.2814 52.9591 75.2592C53.1333 75.2561 53.3034 75.2725 53.4673 75.3063C54.5007 75.5194 55.2858 76.4255 55.305 77.5246C55.3272 78.798 54.3129 79.8483 53.0395 79.8705C51.7662 79.8927 50.7159 78.8784 50.6936 77.6051ZM62.5705 41.8798C62.5483 40.6064 63.5626 39.5561 64.8359 39.5339C66.1093 39.5117 67.1596 40.5259 67.1819 41.7993C67.2041 43.0727 66.1898 44.123 64.9164 44.1452C64.5885 44.1509 64.2754 44.0879 63.9908 43.9694C63.1703 43.6279 62.587 42.8253 62.5705 41.8798ZM72.3819 62.2351C72.4041 63.5085 73.4544 64.5228 74.7278 64.5006C76.0012 64.4783 77.0155 63.428 76.9932 62.1547C76.971 60.8813 75.9207 59.867 74.6473 59.8892C73.4885 59.9095 72.5443 60.7811 72.4005 61.8974C72.3998 61.9028 72.3992 61.9083 72.3985 61.9137C72.3977 61.9206 72.3968 61.9275 72.3961 61.9344C72.385 62.0329 72.3801 62.1333 72.3819 62.2351ZM76.7719 49.4735C76.7497 48.2001 77.7639 47.1498 79.0373 47.1276C80.3107 47.1054 81.361 48.1196 81.3832 49.393C81.4054 50.6664 80.3912 51.7167 79.1178 51.7389C78.3635 51.7521 77.6874 51.4015 77.257 50.8489C76.9608 50.4686 76.781 49.9926 76.7719 49.4735ZM71.021 37.1196C70.9988 35.8462 72.013 34.7959 73.2864 34.7736C74.5598 34.7514 75.6101 35.7657 75.6323 37.0391C75.6545 38.3124 74.6403 39.3627 73.3669 39.385C73.3257 39.3857 73.2847 39.3853 73.244 39.3839C72.0266 39.3413 71.0425 38.3517 71.021 37.1196Z" stroke="white" stroke-width="2.48201"/>
<path d="M113.212 10.667L113.44 10.8957C113.303 16.9348 113.166 23.0196 113.166 29.0587C113.166 30.7972 113.166 32.7645 113.669 34.1827C114.264 35.9213 115.499 37.0193 117.649 37.0193C118.473 37.0193 119.754 36.882 120.806 35.8298C122.224 34.4115 122.224 32.124 122.224 28.7842C122.224 20.6863 122.087 16.157 121.904 10.9872L122.133 10.8042L130.505 10.667L130.78 10.85L130.551 29.6992L130.505 31.4377C130.322 34.8232 130.139 38.8493 126.388 41.4571C124.42 42.8296 121.172 43.7904 117.009 43.7904C113.715 43.7904 108.408 43.1956 105.709 39.8101C103.558 37.1565 103.467 33.7252 103.375 30.843V29.4247C103.375 20.0458 103.33 18.2158 103.192 11.033L103.375 10.8042C107.63 10.8042 108.774 10.8042 113.212 10.667ZM159.921 42.1433L159.692 42.4178C157.222 43.1498 155.117 43.7904 151.732 43.7904C146.196 43.7904 142.902 42.3721 140.614 40.5421C136.177 36.9735 135.124 31.4835 135.124 27.3659C135.124 16.0655 141.85 10.118 151.549 10.118C155.575 10.118 157.908 11.0787 159.784 11.8107L159.967 12.131C159.692 15.3335 159.647 16.34 159.555 19.6798L159.235 19.8628C158.32 19.0851 156.627 17.621 153.379 17.621C149.765 17.621 145.464 19.8628 145.464 26.9542C145.464 34.3657 150.085 36.2873 153.791 36.2873C157.039 36.2873 158.915 34.9148 159.875 34.2285L160.241 34.4115L159.921 42.1433ZM164.062 34.4572L164.474 34.32C164.794 34.5945 165.115 34.869 165.481 35.0978C167.311 36.4245 170.147 37.0193 172.206 37.0193C176.323 37.0193 176.735 34.7775 176.735 33.9997C176.735 32.2155 174.859 31.4377 173.487 30.843L171.199 29.9279C168.043 28.5097 163.742 26.5424 163.742 20.2746C163.742 17.7583 164.337 15.1048 166.67 12.9087C168.866 10.8957 171.703 10.0722 175.82 10.0722C180.487 10.0722 183.186 11.2617 184.559 11.8565L184.742 12.131L184.33 19.2681L183.918 19.4511C183.277 18.9478 182.637 18.4446 181.905 18.0328C180.349 17.1178 178.474 16.6603 177.01 16.6603C175.317 16.6603 174.676 17.1178 174.356 17.3465C173.807 17.8041 173.35 18.6276 173.35 19.4511C173.35 21.1896 175.408 22.0131 176.415 22.4249L178.931 23.4771C179.709 23.7974 181.859 24.5751 183.781 26.3594C186.114 28.5097 186.434 31.2547 186.434 32.9475C186.434 36.0128 185.016 38.3003 184.604 38.9408C181.905 42.9211 177.238 43.7904 172.618 43.7904C168.043 43.7904 165.435 42.7838 164.108 42.2806L163.742 41.8231C163.971 38.346 164.017 37.797 164.062 34.4572ZM214.205 42.1433L213.976 42.4178C211.506 43.1498 209.401 43.7904 206.016 43.7904C200.48 43.7904 197.186 42.3721 194.898 40.5421C190.461 36.9735 189.408 31.4835 189.408 27.3659C189.408 16.0655 196.134 10.118 205.833 10.118C209.859 10.118 212.192 11.0787 214.068 11.8107L214.251 12.131C213.976 15.3335 213.931 16.34 213.839 19.6798L213.519 19.8628C212.604 19.0851 210.911 17.621 207.663 17.621C204.049 17.621 199.748 19.8628 199.748 26.9542C199.748 34.3657 204.369 36.2873 208.075 36.2873C211.323 36.2873 213.199 34.9148 214.159 34.2285L214.525 34.4115L214.205 42.1433Z" fill="white"/>
<path d="M108.069 53.0862L108.343 53.3602C108.225 55.9827 108.147 59.0749 108.147 65.8074C108.147 73.3227 108.225 76.5323 108.46 80.564L108.225 80.838C106.503 80.8771 105.955 80.8771 103.881 80.9554L103.646 80.6814C103.724 78.2937 103.802 76.2192 103.802 71.1698C103.802 65.2594 103.802 59.3881 103.528 53.5168L103.724 53.2036C105.446 53.2036 106.073 53.2036 108.069 53.0862ZM131.749 77.3543L131.983 77.6283C131.866 78.9591 131.866 79.2331 131.788 80.564L131.514 80.838C123.881 80.838 122.668 80.8771 115.231 80.9554L115.035 80.6814C115.152 77.5892 115.27 75.4755 115.27 68.3125C115.27 61.7366 115.27 57.979 114.996 53.4776L115.231 53.2036C122.942 53.1645 124.468 53.1645 131.67 53.0862L131.905 53.3602C131.788 54.5344 131.709 55.0042 131.631 56.4133L131.396 56.6873C126.347 56.5307 124.664 56.5307 119.693 56.4916C119.575 60.0926 119.575 61.2277 119.575 64.8288C124.39 64.868 125.877 64.8288 130.653 64.7505L130.848 65.0245C130.692 66.3945 130.692 66.7859 130.653 68.0385L130.418 68.3125C125.877 68.195 124.899 68.195 119.575 68.195C119.497 72.7355 119.536 73.8315 119.575 77.55C125.486 77.55 126.699 77.55 131.749 77.3543ZM152.963 77.3543L153.198 77.6283C153.081 78.9591 153.081 79.2331 153.002 80.564L152.728 80.838C145.096 80.838 143.882 80.8771 136.445 80.9554L136.25 80.6814C136.367 77.5892 136.484 75.4755 136.484 68.3125C136.484 61.7366 136.484 57.979 136.21 53.4776L136.445 53.2036C144.156 53.1645 145.683 53.1645 152.885 53.0862L153.12 53.3602C153.002 54.5344 152.924 55.0042 152.846 56.4133L152.611 56.6873C147.562 56.5307 145.879 56.5307 140.907 56.4916C140.79 60.0926 140.79 61.2277 140.79 64.8288C145.605 64.868 147.092 64.8288 151.867 64.7505L152.063 65.0245C151.906 66.3945 151.906 66.7859 151.867 68.0385L151.632 68.3125C147.092 68.195 146.113 68.195 140.79 68.195C140.712 72.7355 140.751 73.8315 140.79 77.55C146.701 77.55 147.914 77.55 152.963 77.3543ZM174.178 77.3543L174.413 77.6283C174.295 78.9591 174.295 79.2331 174.217 80.564L173.943 80.838C166.31 80.838 165.097 80.8771 157.66 80.9554L157.464 80.6814C157.582 77.5892 157.699 75.4755 157.699 68.3125C157.699 61.7366 157.699 57.979 157.425 53.4776L157.66 53.2036C165.371 53.1645 166.898 53.1645 174.1 53.0862L174.335 53.3602C174.217 54.5344 174.139 55.0042 174.061 56.4133L173.826 56.6873C168.776 56.5307 167.093 56.5307 162.122 56.4916C162.005 60.0926 162.005 61.2277 162.005 64.8288C166.819 64.868 168.307 64.8288 173.082 64.7505L173.278 65.0245C173.121 66.3945 173.121 66.7859 173.082 68.0385L172.847 68.3125C168.307 68.195 167.328 68.195 162.005 68.195C161.926 72.7355 161.966 73.8315 162.005 77.55C167.915 77.55 169.129 77.55 174.178 77.3543ZM198.25 64.32L200.207 65.1811C203.064 66.4337 206.861 68.0776 206.861 73.0878C206.861 77.4717 203.612 81.4251 196.801 81.4251C192.652 81.4251 189.991 80.1725 189.051 79.7028L188.895 79.4288C189.051 78.0589 189.09 77.3152 189.208 75.8278L189.599 75.6712C190.578 76.3366 192.848 77.9806 196.488 77.9806C200.52 77.9806 202.203 75.906 202.203 73.5575C202.203 70.8176 199.933 69.7607 197.389 68.7822L195.432 67.9211C192.652 66.6294 188.934 64.9463 188.934 60.1709C188.934 58.7227 189.325 57.2353 190.147 56.061C191.948 53.4776 195.197 52.6165 198.367 52.6165C201.459 52.6165 203.338 53.2036 205.413 53.869L205.608 54.1822C205.452 55.6696 205.413 56.2176 205.295 57.6267L204.982 57.7832C203.299 56.9221 201.459 55.9827 198.524 55.9827C195.275 55.9827 193.24 57.5092 193.24 59.8186C193.24 61.58 194.414 62.402 195.236 62.9109C195.745 63.224 195.901 63.3023 198.25 64.32ZM219.856 77.5109L220.13 77.7457C220.012 79.0374 220.012 79.3114 219.973 80.4465L219.778 80.6814C218.956 80.8771 218.29 81.0337 216.842 81.0337C215.903 81.0337 213.437 81.0337 212.223 78.9983C211.519 77.8632 211.519 76.9237 211.519 72.305L211.597 63.6937C210.227 63.6937 210.188 63.7328 208.779 63.772L208.622 63.5371C208.7 62.2846 208.7 61.9714 208.7 60.7189L208.935 60.484C209.796 60.484 210.305 60.5232 211.597 60.484C211.558 59.6621 211.558 58.8009 211.558 57.979C211.519 57.2353 211.479 56.4916 211.44 55.7479L211.636 55.4739C213.397 55.0433 213.828 54.9259 215.629 54.3779L215.903 54.5736C215.785 57.157 215.746 57.6658 215.746 60.5232C217.39 60.484 217.86 60.484 220.091 60.4058L220.286 60.6406C220.208 61.6583 220.169 62.0889 220.169 63.4197L219.973 63.6546C218.016 63.6154 217.781 63.5763 215.707 63.5763L215.629 70.8567C215.668 71.3264 215.668 73.5575 215.668 74.1055C215.668 76.9629 216.02 77.8632 217.977 77.8632C218.799 77.8632 219.425 77.6674 219.856 77.5109ZM240.502 60.3275L240.737 60.6015C240.659 63.5763 240.62 66.3554 240.62 69.5259C240.62 74.3404 240.737 77.2369 240.816 78.92C240.816 79.468 240.855 80.016 240.894 80.564L240.737 80.7988C238.858 80.838 238.545 80.8771 236.745 80.9554L236.51 80.7205L236.549 79.0766C235.688 79.7028 233.613 81.3077 230.404 81.3077C228.877 81.3077 227.194 80.9554 225.942 79.9768C223.436 77.9414 223.436 74.6144 223.397 71.5613V69.1345C223.319 63.5371 223.319 62.9109 223.202 60.7972L223.397 60.5232C225.237 60.484 225.589 60.484 227.429 60.3275L227.664 60.6015L227.507 69.1736C227.507 70.2304 227.468 71.0133 227.507 72.8921C227.546 74.5361 227.625 78.0589 231.578 78.0589C233.887 78.0589 235.531 76.7672 236.471 76.0235C236.51 73.9098 236.51 72.1093 236.51 69.839C236.51 64.3983 236.471 63.3023 236.236 60.758L236.471 60.484C238.271 60.4449 238.702 60.4449 240.502 60.3275ZM259.174 50.6594L259.369 50.4245C261.366 50.0722 261.757 49.994 263.518 49.6025L263.792 49.8374C263.518 55.2781 263.479 64.9854 263.479 68.8996C263.479 74.9666 263.636 77.8632 263.792 80.564L263.597 80.838C261.874 80.838 261.405 80.8771 259.604 80.9554L259.33 80.7205L259.408 79.2723C258.469 79.9768 256.864 81.2294 254.007 81.2294C248.801 81.2294 245.2 77.1194 245.2 71.1698C245.2 66.9034 247 64.2026 248.644 62.7543C251.502 60.1709 255.22 60.0535 257.256 60.0535C258.078 60.0535 258.469 60.0535 259.526 60.1318C259.565 55.2781 259.369 52.9296 259.174 50.6594ZM259.369 76.0235C259.448 70.8959 259.448 69.7216 259.408 63.3023C258.743 63.2631 258.273 63.1849 257.451 63.1849C256.238 63.1849 253.655 63.2631 251.776 65.0245C250.915 65.8465 249.505 67.6862 249.505 71.1698C249.505 73.4009 250.132 75.0058 250.954 75.9843C251.658 76.8063 252.95 77.7457 254.985 77.7457C257.373 77.7457 258.821 76.4932 259.369 76.0235ZM285.008 75.8669L285.321 76.0626C285.125 77.6283 285.086 78.0197 285.008 79.5463L284.773 79.8203C284.107 80.1725 281.994 81.3077 278.51 81.3077C272.091 81.3077 268.059 77.6283 268.059 70.8176C268.059 63.5371 272.443 59.9752 277.571 59.9752C280.663 59.9752 282.816 61.2669 283.99 62.676C286.221 65.3377 286.143 69.2127 286.104 70.935L285.83 71.1698C279.723 71.1307 278.667 71.1307 272.247 71.1698C272.286 72.5398 272.404 74.4578 273.735 76.0626C275.34 77.9806 277.571 78.1763 278.784 78.1763C279.919 78.1763 281.093 77.9806 282.189 77.5892C283.638 77.002 284.499 76.2975 285.008 75.8669ZM282.072 68.1559C282.033 67.6079 281.994 66.7468 281.681 65.8465C280.898 63.6937 279.175 62.7934 277.414 62.7934C275.222 62.7934 272.639 64.2808 272.247 68.195C276.984 68.2342 278.471 68.195 282.072 68.1559ZM307.866 80.564L307.631 80.7988C305.753 80.838 305.518 80.838 303.717 80.9554L303.443 80.6814C303.443 80.2508 303.482 79.8203 303.482 79.3897C303.522 77.4717 303.522 75.5538 303.522 73.6358C303.522 67.6079 303.482 67.2165 303.287 66.3945C302.543 63.4197 300.312 63.4197 299.764 63.4197C297.415 63.4197 295.615 64.7897 294.558 65.6117C294.519 72.4224 294.597 75.9843 294.871 80.564L294.636 80.7988C292.718 80.838 292.405 80.838 290.526 80.9554L290.331 80.6814C290.37 78.4894 290.448 76.3757 290.448 73.4792C290.448 67.2165 290.174 63.8894 289.978 61.2669L290.213 60.9929C292.17 60.6406 292.523 60.5623 294.362 60.2101L294.636 60.484L294.597 62.5194C295.615 61.8149 298.042 60.0926 301.486 60.0926C302.465 60.0926 303.678 60.2492 304.735 60.8363C305.753 61.4235 306.575 62.3237 307.005 63.3806C307.514 64.5548 307.553 65.7291 307.592 68.1559V72.7355C307.71 77.3152 307.749 79.0766 307.866 80.564ZM321.801 77.5109L322.075 77.7457C321.958 79.0374 321.958 79.3114 321.919 80.4465L321.723 80.6814C320.901 80.8771 320.236 81.0337 318.787 81.0337C317.848 81.0337 315.382 81.0337 314.169 78.9983C313.464 77.8632 313.464 76.9237 313.464 72.305L313.542 63.6937C312.172 63.6937 312.133 63.7328 310.724 63.772L310.567 63.5371C310.646 62.2846 310.646 61.9714 310.646 60.7189L310.881 60.484C311.742 60.484 312.251 60.5232 313.542 60.484C313.503 59.6621 313.503 58.8009 313.503 57.979C313.464 57.2353 313.425 56.4916 313.386 55.7479L313.581 55.4739C315.343 55.0433 315.773 54.9259 317.574 54.3779L317.848 54.5736C317.73 57.157 317.691 57.6658 317.691 60.5232C319.335 60.484 319.805 60.484 322.036 60.4058L322.232 60.6406C322.154 61.6583 322.114 62.0889 322.114 63.4197L321.919 63.6546C319.962 63.6154 319.727 63.5763 317.652 63.5763L317.574 70.8567C317.613 71.3264 317.613 73.5575 317.613 74.1055C317.613 76.9629 317.965 77.8632 319.922 77.8632C320.744 77.8632 321.371 77.6674 321.801 77.5109ZM344.17 80.9162L337.281 80.9554L337.085 80.6814C337.163 78.8026 337.202 77.002 337.202 73.4401C337.202 71.757 337.242 63.5763 337.242 61.7366C337.242 57.6267 337.124 55.513 336.968 53.4776L337.163 53.2036L342.408 53.1253C343.191 53.0862 344.405 53.0862 345.461 53.0862C347.771 53.0862 350.237 53.1645 352.194 54.2996C353.642 55.1216 355.286 56.7655 355.286 59.6621C355.286 61.032 354.895 64.9463 349.454 66.2771C350.354 66.3162 351.646 66.3554 353.055 66.9816C356.421 68.469 356.774 71.4438 356.774 72.8921C356.774 76.4932 354.542 79.0374 351.411 80.1725C349.337 80.9162 347.262 80.9162 344.17 80.9162ZM342.447 68.2733L341.508 68.3125C341.508 72.7747 341.508 73.4401 341.665 77.7066H342.408C345.344 77.7066 347.732 77.7457 349.258 77.1194C351.137 76.4149 352.194 74.7709 352.194 72.8138C352.194 68.2342 347.145 68.195 345.266 68.195C344.913 68.195 344.561 68.195 342.447 68.2733ZM341.508 56.335V65.0245C345.031 65.0637 347.732 65.0245 349.376 63.7328C350.354 62.9109 350.98 61.6192 350.98 60.3275C350.98 59.2706 350.55 58.2529 349.884 57.5484C348.515 56.2176 346.088 56.2176 345.187 56.2176C343.935 56.2176 342.721 56.2567 341.508 56.335ZM370.669 64.3591L370.395 64.5548C370.004 64.3983 369.495 64.2026 368.829 64.2026C368.086 64.2026 367.538 64.4765 367.185 64.7114C365.58 65.8465 365.58 67.5688 365.58 71.6396C365.58 76.0626 365.698 78.372 365.854 80.564L365.659 80.838C363.819 80.838 363.389 80.8771 361.51 80.9554L361.314 80.7205C361.353 77.7457 361.392 75.0449 361.392 71.4047C361.392 65.142 361.275 63.5371 361.04 61.2669L361.275 60.9929C362.762 60.7189 363.702 60.5232 365.346 60.2101L365.58 60.4449L365.385 63.772C365.854 62.5194 366.833 60.0143 370.16 60.0143C370.669 60.0143 370.943 60.0535 371.256 60.1318L371.413 60.3666C371.021 62.2454 370.943 62.6369 370.669 64.3591ZM389.262 68.8996V72.7747C389.262 77.6283 389.301 78.0589 389.497 80.6031L389.301 80.7988C387.461 80.838 387.148 80.8771 385.348 80.9554L385.191 80.7205L385.23 79.3114C384.486 79.8985 382.725 81.3077 379.75 81.3077C375.836 81.3077 373.096 78.646 373.096 74.7709C373.096 69.5259 377.48 67.8428 384.526 67.0208L385.191 66.9425C385.191 65.8857 385.191 65.142 384.839 64.5157C384.447 63.8111 383.547 63.0674 381.59 63.0674C379.046 63.0674 377.284 63.8503 375.64 64.5548L375.327 64.3591C375.405 62.5586 375.405 62.3237 375.445 61.5017L375.679 61.2669C377.871 60.484 380.142 59.9752 382.451 59.9752C385.348 59.9752 388.166 60.9538 388.988 64.0068C389.262 65.1028 389.262 67.2556 389.262 68.8996ZM385.23 69.839L384.878 69.9173C380.925 70.5044 377.245 71.0524 377.245 74.5361C377.245 74.7318 377.245 78.098 380.964 78.098C383.39 78.098 384.8 76.7672 385.23 76.3757V69.839ZM412.296 80.564L412.061 80.7988C410.183 80.838 409.948 80.838 408.147 80.9554L407.873 80.6814C407.873 80.2508 407.912 79.8203 407.912 79.3897C407.952 77.4717 407.952 75.5538 407.952 73.6358C407.952 67.6079 407.912 67.2165 407.717 66.3945C406.973 63.4197 404.742 63.4197 404.194 63.4197C401.845 63.4197 400.045 64.7897 398.988 65.6117C398.949 72.4224 399.027 75.9843 399.301 80.564L399.066 80.7988C397.148 80.838 396.835 80.838 394.956 80.9554L394.761 80.6814C394.8 78.4894 394.878 76.3757 394.878 73.4792C394.878 67.2165 394.604 63.8894 394.408 61.2669L394.643 60.9929C396.6 60.6406 396.953 60.5623 398.792 60.2101L399.066 60.484L399.027 62.5194C400.045 61.8149 402.472 60.0926 405.916 60.0926C406.895 60.0926 408.108 60.2492 409.165 60.8363C410.183 61.4235 411.005 62.3237 411.435 63.3806C411.944 64.5548 411.983 65.7291 412.022 68.1559V72.7355C412.14 77.3152 412.179 79.0766 412.296 80.564ZM431.946 76.0235L432.259 76.18C432.103 77.8632 432.063 78.0589 431.946 79.6637L431.672 79.9377C430.537 80.4857 429.01 81.2685 426.27 81.2685C420.36 81.2685 416.524 77.002 416.524 70.8959C416.524 64.6723 420.282 59.9752 426.349 59.9752C428.893 59.9752 430.693 60.7972 431.711 61.2277L431.868 61.5017C431.711 62.9109 431.672 63.4197 431.594 64.594L431.281 64.7505C429.989 63.8111 428.501 63.224 426.936 63.224C423.687 63.224 420.83 65.7291 420.83 70.7393C420.83 76.0626 423.844 77.9806 426.897 77.9806C429.558 77.9806 431.202 76.6106 431.946 76.0235ZM453.044 80.564L452.809 80.7988C450.93 80.838 450.695 80.838 448.895 80.9554L448.621 80.6814L448.66 79.3897C448.699 77.3543 448.699 75.2798 448.699 73.2444L448.66 69.0562C448.66 68.1559 448.66 67.2556 448.464 66.3945C448.034 64.594 446.938 63.4197 444.941 63.4197C442.71 63.4197 440.988 64.6723 439.696 65.6117C439.657 72.4224 439.736 75.9843 439.97 80.564L439.775 80.7988C437.974 80.838 437.504 80.838 435.586 80.9554L435.391 80.6814C435.469 77.9023 435.586 74.3795 435.586 66.8642C435.586 63.5763 435.547 60.2883 435.508 57.0004C435.43 53.5559 435.312 52.4208 435.195 50.6594L435.391 50.4245C437.27 50.1114 437.896 49.994 439.657 49.6025L439.892 49.8765C439.657 54.0647 439.657 58.2921 439.657 62.5194C440.91 61.6975 443.376 60.0926 446.664 60.0926C447.564 60.0926 448.464 60.2101 449.286 60.5623C451.048 61.2669 452.104 62.676 452.496 64.2808C452.692 65.0637 452.692 65.5334 452.77 68.1559V72.7355L452.809 74.5752C452.887 77.8632 452.887 78.4111 453.044 80.564Z" fill="white"/>
</svg>
