<svg width="456" height="105" viewBox="0 0 456 105" fill="none" xmlns="http://www.w3.org/2000/svg">
<path d="M27.7173 53.6668L31.6083 47.1228L28.9071 34.3968M25.5002 30.5542L28.9071 34.3968M28.9071 34.3968L37.8297 44.4608M37.8297 44.4608L47.5636 55.4397M37.8297 44.4608L38.456 47.4911M47.0355 65.4297L41.5899 62.4111L41.4102 61.7842L38.456 47.4911M38.456 47.4911L33.6487 56.1637L34.9388 63.4702M25.1608 26.8857C26.2747 27.5031 26.6771 28.9067 26.0597 30.0206C25.9752 30.173 25.8759 30.3121 25.7648 30.4371C25.0635 31.2255 23.8863 31.4524 22.9248 30.9195C21.8109 30.302 21.4085 28.8985 22.0259 27.7846C22.6433 26.6707 24.0469 26.2683 25.1608 26.8857ZM50.1613 55.034C51.2752 55.6515 51.6777 57.055 51.0602 58.1689C50.4428 59.2828 49.0393 59.6852 47.9254 59.0678C46.8115 58.4504 46.409 57.0468 47.0265 55.9329C47.1855 55.6461 47.3966 55.4064 47.6415 55.2192C48.3476 54.6794 49.3343 54.5756 50.1613 55.034ZM27.6274 53.3533C26.5135 52.7358 25.1099 53.1383 24.4925 54.2522C23.8751 55.3661 24.2775 56.7696 25.3914 57.387C26.5053 58.0045 27.9088 57.602 28.5263 56.4881C29.0881 55.4745 28.8054 54.221 27.9106 53.5383C27.9062 53.5349 27.9018 53.5316 27.8975 53.5283C27.8919 53.5242 27.8863 53.52 27.8807 53.5159C27.8009 53.457 27.7164 53.4026 27.6274 53.3533ZM36.4843 63.5359C37.5982 64.1534 38.0006 65.5569 37.3832 66.6708C36.7657 67.7847 35.3622 68.1871 34.2483 67.5697C33.1344 66.9522 32.732 65.5487 33.3494 64.4348C33.7152 63.775 34.3568 63.3648 35.0506 63.2684C35.5281 63.202 36.0302 63.2842 36.4843 63.5359ZM50.0586 64.7325C51.1725 65.3499 51.5749 66.7534 50.9575 67.8673C50.34 68.9812 48.9365 69.3837 47.8226 68.7662C46.7087 68.1488 46.3063 66.7453 46.9237 65.6314C46.9437 65.5953 46.9645 65.56 46.9861 65.5254C47.6317 64.4925 48.9807 64.135 50.0586 64.7325Z" stroke="#00629B" stroke-width="2.48201"/>
<path d="M56.9687 18.9498L60.6903 25.5915L73.062 29.6152M78.0933 28.5861L73.062 29.6152M73.062 29.6152L59.885 32.3105M59.885 32.3105L45.5101 35.2508M59.885 32.3105L56.9476 31.3377M37.1225 29.7985L42.4595 26.5917L43.0923 26.7495L56.9476 31.3377M56.9476 31.3377L51.8405 22.8382L44.8679 20.3021M81.44 30.1264C80.3483 30.7823 78.9316 30.4291 78.2757 29.3374C78.1859 29.188 78.115 29.0325 78.0624 28.8737C77.7302 27.8722 78.1223 26.7393 79.0646 26.1731C80.1563 25.5172 81.573 25.8704 82.2289 26.9621C82.8849 28.0537 82.5316 29.4704 81.44 30.1264ZM44.5625 37.7033C43.4709 38.3593 42.0541 38.006 41.3982 36.9144C40.7423 35.8227 41.0955 34.406 42.1872 33.75C43.2788 33.0941 44.6955 33.4473 45.3515 34.539C45.5204 34.8201 45.6224 35.1228 45.6621 35.4285C45.7765 36.3099 45.3731 37.2163 44.5625 37.7033ZM57.2851 19.0287C58.3768 18.3728 58.73 16.9561 58.074 15.8644C57.4181 14.7727 56.0014 14.4195 54.9097 15.0755C53.8181 15.7314 53.4648 17.1481 54.1208 18.2398C54.7177 19.2332 55.9446 19.6151 56.9833 19.1815C56.9883 19.1794 56.9934 19.1772 56.9984 19.1751C57.0048 19.1724 57.0112 19.1696 57.0176 19.1668C57.1084 19.1272 57.1978 19.0812 57.2851 19.0287ZM44.0382 21.6077C42.9465 22.2637 41.5298 21.9104 40.8739 20.8188C40.2179 19.7271 40.5712 18.3104 41.6628 17.6544C42.7545 16.9985 44.1712 17.3517 44.8272 18.4434C45.2157 19.0901 45.2502 19.8508 44.9867 20.4999C44.8055 20.9466 44.4832 21.3403 44.0382 21.6077ZM36.2148 32.7651C35.1232 33.4211 33.7064 33.0678 33.0505 31.9762C32.3946 30.8845 32.7478 29.4678 33.8395 28.8119C34.9311 28.1559 36.3478 28.5091 37.0038 29.6008C37.025 29.6361 37.0452 29.6718 37.0643 29.7078C37.6361 30.7834 37.2711 32.1304 36.2148 32.7651Z" stroke="#00629B" stroke-width="2.48201"/>
<path d="M72.5331 61.9303L64.9204 61.8326L55.2499 70.5349M53.6255 75.4066L55.2499 70.5349M55.2499 70.5349L59.5042 57.7756M59.5042 57.7756L64.1453 43.8565M59.5042 57.7756L61.8154 55.7181M73.0609 39.3187L73.1696 45.544L72.7165 46.0132L61.8154 55.7181M61.8154 55.7181L71.7297 55.5451L77.4124 50.7746M50.6183 77.5348C50.596 76.2614 51.6103 75.2112 52.8837 75.1889C53.0579 75.1859 53.228 75.2023 53.3919 75.236C54.4253 75.4492 55.2104 76.3552 55.2296 77.4543C55.2518 78.7277 54.2375 79.778 52.9642 79.8002C51.6908 79.8225 50.6405 78.8082 50.6183 77.5348ZM62.4952 41.8095C62.4729 40.5362 63.4872 39.4859 64.7606 39.4636C66.0339 39.4414 67.0842 40.4557 67.1065 41.7291C67.1287 43.0024 66.1144 44.0527 64.8411 44.075C64.5131 44.0807 64.2 44.0177 63.9154 43.8992C63.0949 43.5576 62.5117 42.755 62.4952 41.8095ZM72.3065 62.1649C72.3288 63.4383 73.3791 64.4526 74.6524 64.4303C75.9258 64.4081 76.9401 63.3578 76.9179 62.0844C76.8956 60.811 75.8453 59.7968 74.572 59.819C73.4132 59.8392 72.469 60.7108 72.3252 61.8271C72.3245 61.8326 72.3238 61.838 72.3231 61.8435C72.3223 61.8504 72.3215 61.8573 72.3207 61.8642C72.3096 61.9627 72.3048 62.0631 72.3065 62.1649ZM76.6965 49.4033C76.6743 48.1299 77.6885 47.0796 78.9619 47.0574C80.2353 47.0351 81.2856 48.0494 81.3078 49.3228C81.3301 50.5962 80.3158 51.6465 79.0424 51.6687C78.2881 51.6819 77.612 51.3313 77.1816 50.7786C76.8855 50.3983 76.7056 49.9223 76.6965 49.4033ZM70.9456 37.0493C70.9234 35.7759 71.9376 34.7256 73.211 34.7034C74.4844 34.6812 75.5347 35.6954 75.5569 36.9688C75.5792 38.2422 74.5649 39.2925 73.2915 39.3147C73.2503 39.3155 73.2093 39.3151 73.1686 39.3137C71.9512 39.271 70.9671 38.2815 70.9456 37.0493Z" stroke="#00629B" stroke-width="2.48201"/>
<path d="M113.136 10.5967L113.365 10.8255C113.228 16.8645 113.09 22.9494 113.09 28.9884C113.09 30.727 113.09 32.6942 113.594 34.1125C114.188 35.851 115.424 36.949 117.574 36.949C118.398 36.949 119.679 36.8118 120.731 35.7595C122.149 34.3413 122.149 32.0537 122.149 28.7139C122.149 20.6161 122.012 16.0868 121.829 10.917L122.058 10.734L130.43 10.5967L130.704 10.7797L130.476 29.6289L130.43 31.3675C130.247 34.753 130.064 38.7791 126.312 41.3868C124.345 42.7593 121.097 43.7201 116.934 43.7201C113.639 43.7201 108.332 43.1254 105.633 39.7398C103.483 37.0863 103.391 33.655 103.3 30.7727V29.3544C103.3 19.9756 103.254 18.1456 103.117 10.9627L103.3 10.734C107.555 10.734 108.698 10.734 113.136 10.5967ZM159.846 42.0731L159.617 42.3476C157.146 43.0796 155.042 43.7201 151.656 43.7201C146.121 43.7201 142.827 42.3018 140.539 40.4718C136.101 36.9033 135.049 31.4132 135.049 27.2957C135.049 15.9953 141.774 10.0477 151.473 10.0477C155.499 10.0477 157.833 11.0085 159.708 11.7405L159.891 12.0607C159.617 15.2633 159.571 16.2698 159.48 19.6096L159.159 19.7926C158.244 19.0148 156.552 17.5508 153.303 17.5508C149.689 17.5508 145.389 19.7926 145.389 26.8839C145.389 34.2955 150.009 36.217 153.715 36.217C156.963 36.217 158.839 34.8445 159.8 34.1582L160.166 34.3413L159.846 42.0731ZM163.987 34.387L164.399 34.2497C164.719 34.5243 165.039 34.7988 165.405 35.0275C167.235 36.3543 170.072 36.949 172.13 36.949C176.248 36.949 176.66 34.7073 176.66 33.9295C176.66 32.1452 174.784 31.3675 173.411 30.7727L171.124 29.8577C167.967 28.4394 163.667 26.4722 163.667 20.2043C163.667 17.6881 164.261 15.0345 166.595 12.8385C168.791 10.8255 171.627 10.002 175.745 10.002C180.411 10.002 183.111 11.1915 184.483 11.7862L184.666 12.0607L184.254 19.1978L183.843 19.3808C183.202 18.8776 182.562 18.3743 181.83 17.9626C180.274 17.0475 178.398 16.59 176.934 16.59C175.241 16.59 174.601 17.0475 174.281 17.2763C173.732 17.7338 173.274 18.5573 173.274 19.3808C173.274 21.1193 175.333 21.9429 176.339 22.3546L178.856 23.4069C179.634 23.7271 181.784 24.5049 183.705 26.2892C186.039 28.4394 186.359 31.1845 186.359 32.8772C186.359 35.9425 184.941 38.23 184.529 38.8706C181.83 42.8508 177.163 43.7201 172.542 43.7201C167.967 43.7201 165.359 42.7136 164.033 42.2103L163.667 41.7528C163.895 38.2758 163.941 37.7268 163.987 34.387ZM214.13 42.0731L213.901 42.3476C211.431 43.0796 209.326 43.7201 205.94 43.7201C200.405 43.7201 197.111 42.3018 194.823 40.4718C190.385 36.9033 189.333 31.4132 189.333 27.2957C189.333 15.9953 196.058 10.0477 205.757 10.0477C209.783 10.0477 212.117 11.0085 213.993 11.7405L214.176 12.0607C213.901 15.2633 213.855 16.2698 213.764 19.6096L213.444 19.7926C212.529 19.0148 210.836 17.5508 207.587 17.5508C203.973 17.5508 199.673 19.7926 199.673 26.8839C199.673 34.2955 204.293 36.217 207.999 36.217C211.248 36.217 213.123 34.8445 214.084 34.1582L214.45 34.3413L214.13 42.0731Z" fill="#00629B"/>
<path d="M107.993 53.0159L108.267 53.2899C108.15 55.9125 108.072 59.0047 108.072 65.7371C108.072 73.2524 108.15 76.4621 108.385 80.4937L108.15 80.7677C106.428 80.8068 105.88 80.8068 103.805 80.8851L103.57 80.6111C103.649 78.2235 103.727 76.1489 103.727 71.0996C103.727 65.1891 103.727 59.3178 103.453 53.4465L103.649 53.1334C105.371 53.1334 105.997 53.1334 107.993 53.0159ZM131.673 77.2841L131.908 77.558C131.791 78.8889 131.791 79.1629 131.712 80.4937L131.438 80.7677C123.806 80.7677 122.592 80.8068 115.155 80.8851L114.959 80.6111C115.077 77.5189 115.194 75.4052 115.194 68.2422C115.194 61.6663 115.194 57.9087 114.92 53.4074L115.155 53.1334C122.866 53.0942 124.393 53.0942 131.595 53.0159L131.83 53.2899C131.712 54.4642 131.634 54.9339 131.556 56.343L131.321 56.617C126.271 56.4604 124.588 56.4604 119.617 56.4213C119.5 60.0224 119.5 61.1575 119.5 64.7586C124.314 64.7977 125.802 64.7586 130.577 64.6803L130.773 64.9543C130.616 66.3243 130.616 66.7157 130.577 67.9682L130.342 68.2422C125.802 68.1248 124.823 68.1248 119.5 68.1248C119.422 72.6653 119.461 73.7613 119.5 77.4798C125.41 77.4798 126.624 77.4798 131.673 77.2841ZM152.888 77.2841L153.123 77.558C153.005 78.8889 153.005 79.1629 152.927 80.4937L152.653 80.7677C145.02 80.7677 143.807 80.8068 136.37 80.8851L136.174 80.6111C136.292 77.5189 136.409 75.4052 136.409 68.2422C136.409 61.6663 136.409 57.9087 136.135 53.4074L136.37 53.1334C144.081 53.0942 145.607 53.0942 152.81 53.0159L153.044 53.2899C152.927 54.4642 152.849 54.9339 152.77 56.343L152.536 56.617C147.486 56.4604 145.803 56.4604 140.832 56.4213C140.715 60.0224 140.715 61.1575 140.715 64.7586C145.529 64.7977 147.016 64.7586 151.792 64.6803L151.988 64.9543C151.831 66.3243 151.831 66.7157 151.792 67.9682L151.557 68.2422C147.016 68.1248 146.038 68.1248 140.715 68.1248C140.636 72.6653 140.675 73.7613 140.715 77.4798C146.625 77.4798 147.838 77.4798 152.888 77.2841ZM174.103 77.2841L174.337 77.558C174.22 78.8889 174.22 79.1629 174.142 80.4937L173.868 80.7677C166.235 80.7677 165.022 80.8068 157.585 80.8851L157.389 80.6111C157.506 77.5189 157.624 75.4052 157.624 68.2422C157.624 61.6663 157.624 57.9087 157.35 53.4074L157.585 53.1334C165.296 53.0942 166.822 53.0942 174.024 53.0159L174.259 53.2899C174.142 54.4642 174.063 54.9339 173.985 56.343L173.75 56.617C168.701 56.4604 167.018 56.4604 162.047 56.4213C161.929 60.0224 161.929 61.1575 161.929 64.7586C166.744 64.7977 168.231 64.7586 173.007 64.6803L173.202 64.9543C173.046 66.3243 173.046 66.7157 173.007 67.9682L172.772 68.2422C168.231 68.1248 167.253 68.1248 161.929 68.1248C161.851 72.6653 161.89 73.7613 161.929 77.4798C167.84 77.4798 169.053 77.4798 174.103 77.2841ZM198.174 64.2497L200.131 65.1109C202.989 66.3634 206.786 68.0074 206.786 73.0176C206.786 77.4015 203.537 81.3548 196.726 81.3548C192.577 81.3548 189.915 80.1023 188.976 79.6326L188.819 79.3586C188.976 77.9886 189.015 77.2449 189.132 75.7575L189.524 75.6009C190.502 76.2664 192.773 77.9103 196.413 77.9103C200.445 77.9103 202.128 75.8358 202.128 73.4873C202.128 70.7473 199.857 69.6905 197.313 68.7119L195.356 67.8508C192.577 66.5591 188.858 64.876 188.858 60.1007C188.858 58.6524 189.25 57.165 190.072 55.9907C191.872 53.4074 195.121 52.5462 198.292 52.5462C201.384 52.5462 203.263 53.1334 205.337 53.7988L205.533 54.1119C205.376 55.5993 205.337 56.1473 205.22 57.5564L204.907 57.713C203.224 56.8519 201.384 55.9125 198.448 55.9125C195.2 55.9125 193.164 57.439 193.164 59.7484C193.164 61.5098 194.338 62.3318 195.16 62.8406C195.669 63.1537 195.826 63.232 198.174 64.2497ZM219.78 77.4406L220.054 77.6755C219.937 78.9672 219.937 79.2412 219.898 80.3763L219.702 80.6111C218.88 80.8068 218.215 80.9634 216.767 80.9634C215.827 80.9634 213.361 80.9634 212.148 78.928C211.443 77.7929 211.443 76.8535 211.443 72.2347L211.521 63.6235C210.152 63.6235 210.112 63.6626 208.703 63.7017L208.547 63.4669C208.625 62.2143 208.625 61.9012 208.625 60.6487L208.86 60.4138C209.721 60.4138 210.23 60.4529 211.521 60.4138C211.482 59.5918 211.482 58.7307 211.482 57.9087C211.443 57.165 211.404 56.4213 211.365 55.6776L211.561 55.4036C213.322 54.973 213.753 54.8556 215.553 54.3076L215.827 54.5033C215.71 57.0867 215.671 57.5956 215.671 60.4529C217.315 60.4138 217.784 60.4138 220.015 60.3355L220.211 60.5704C220.133 61.5881 220.094 62.0186 220.094 63.3495L219.898 63.5843C217.941 63.5452 217.706 63.506 215.631 63.506L215.553 70.7865C215.592 71.2562 215.592 73.4873 215.592 74.0353C215.592 76.8926 215.945 77.7929 217.902 77.7929C218.724 77.7929 219.35 77.5972 219.78 77.4406ZM240.427 60.2572L240.662 60.5312C240.584 63.506 240.544 66.2851 240.544 69.4556C240.544 74.2701 240.662 77.1666 240.74 78.8497C240.74 79.3977 240.779 79.9457 240.818 80.4937L240.662 80.7286C238.783 80.7677 238.47 80.8068 236.669 80.8851L236.435 80.6503L236.474 79.0063C235.613 79.6326 233.538 81.2374 230.328 81.2374C228.802 81.2374 227.119 80.8851 225.866 79.9066C223.361 77.8712 223.361 74.5441 223.322 71.491V69.0642C223.244 63.4669 223.244 62.8406 223.126 60.7269L223.322 60.4529C225.162 60.4138 225.514 60.4138 227.354 60.2572L227.588 60.5312L227.432 69.1033C227.432 70.1602 227.393 70.943 227.432 72.8218C227.471 74.4658 227.549 77.9886 231.503 77.9886C233.812 77.9886 235.456 76.6969 236.395 75.9532C236.435 73.8395 236.435 72.039 236.435 69.7688C236.435 64.328 236.395 63.232 236.161 60.6878L236.395 60.4138C238.196 60.3747 238.626 60.3747 240.427 60.2572ZM259.098 50.5891L259.294 50.3543C261.29 50.002 261.681 49.9237 263.443 49.5323L263.717 49.7671C263.443 55.2079 263.404 64.9151 263.404 68.8294C263.404 74.8964 263.56 77.7929 263.717 80.4937L263.521 80.7677C261.799 80.7677 261.329 80.8068 259.529 80.8851L259.255 80.6503L259.333 79.202C258.394 79.9066 256.789 81.1591 253.931 81.1591C248.725 81.1591 245.124 77.0492 245.124 71.0996C245.124 66.8331 246.925 64.1323 248.569 62.684C251.426 60.1007 255.145 59.9832 257.18 59.9832C258.002 59.9832 258.394 59.9832 259.45 60.0615C259.49 55.2079 259.294 52.8594 259.098 50.5891ZM259.294 75.9532C259.372 70.8256 259.372 69.6513 259.333 63.232C258.668 63.1929 258.198 63.1146 257.376 63.1146C256.162 63.1146 253.579 63.1929 251.7 64.9543C250.839 65.7763 249.43 67.6159 249.43 71.0996C249.43 73.3307 250.056 74.9355 250.878 75.9141C251.583 76.7361 252.875 77.6755 254.91 77.6755C257.298 77.6755 258.746 76.4229 259.294 75.9532ZM284.932 75.7967L285.245 75.9924C285.05 77.558 285.011 77.9495 284.932 79.476L284.697 79.75C284.032 80.1023 281.918 81.2374 278.435 81.2374C272.015 81.2374 267.984 77.558 267.984 70.7473C267.984 63.4669 272.368 59.9049 277.495 59.9049C280.587 59.9049 282.74 61.1966 283.915 62.6058C286.146 65.2674 286.067 69.1425 286.028 70.8647L285.754 71.0996C279.648 71.0605 278.591 71.0605 272.172 71.0996C272.211 72.4696 272.328 74.3875 273.659 75.9924C275.264 77.9103 277.495 78.106 278.709 78.106C279.844 78.106 281.018 77.9103 282.114 77.5189C283.562 76.9318 284.423 76.2272 284.932 75.7967ZM281.997 68.0857C281.957 67.5377 281.918 66.6765 281.605 65.7763C280.822 63.6235 279.1 62.7232 277.339 62.7232C275.147 62.7232 272.563 64.2106 272.172 68.1248C276.908 68.1639 278.395 68.1248 281.997 68.0857ZM307.791 80.4937L307.556 80.7286C305.677 80.7677 305.442 80.7677 303.642 80.8851L303.368 80.6111C303.368 80.1806 303.407 79.75 303.407 79.3194C303.446 77.4015 303.446 75.4835 303.446 73.5655C303.446 67.5377 303.407 67.1462 303.211 66.3243C302.468 63.3495 300.236 63.3495 299.688 63.3495C297.34 63.3495 295.539 64.7194 294.483 65.5414C294.443 72.3521 294.522 75.9141 294.796 80.4937L294.561 80.7286C292.643 80.7677 292.33 80.7677 290.451 80.8851L290.255 80.6111C290.294 78.4192 290.373 76.3055 290.373 73.409C290.373 67.1462 290.099 63.8192 289.903 61.1966L290.138 60.9226C292.095 60.5704 292.447 60.4921 294.287 60.1398L294.561 60.4138L294.522 62.4492C295.539 61.7446 297.966 60.0224 301.411 60.0224C302.389 60.0224 303.603 60.1789 304.66 60.7661C305.677 61.3532 306.499 62.2535 306.93 63.3103C307.439 64.4846 307.478 65.6588 307.517 68.0857V72.6653C307.634 77.2449 307.673 79.0063 307.791 80.4937ZM321.726 77.4406L322 77.6755C321.882 78.9672 321.882 79.2412 321.843 80.3763L321.648 80.6111C320.826 80.8068 320.16 80.9634 318.712 80.9634C317.772 80.9634 315.307 80.9634 314.093 78.928C313.389 77.7929 313.389 76.8535 313.389 72.2347L313.467 63.6235C312.097 63.6235 312.058 63.6626 310.649 63.7017L310.492 63.4669C310.57 62.2143 310.57 61.9012 310.57 60.6487L310.805 60.4138C311.666 60.4138 312.175 60.4529 313.467 60.4138C313.428 59.5918 313.428 58.7307 313.428 57.9087C313.389 57.165 313.349 56.4213 313.31 55.6776L313.506 55.4036C315.267 54.973 315.698 54.8556 317.498 54.3076L317.772 54.5033C317.655 57.0867 317.616 57.5956 317.616 60.4529C319.26 60.4138 319.73 60.4138 321.961 60.3355L322.156 60.5704C322.078 61.5881 322.039 62.0186 322.039 63.3495L321.843 63.5843C319.886 63.5452 319.651 63.506 317.577 63.506L317.498 70.7865C317.538 71.2562 317.538 73.4873 317.538 74.0353C317.538 76.8926 317.89 77.7929 319.847 77.7929C320.669 77.7929 321.295 77.5972 321.726 77.4406ZM344.094 80.846L337.205 80.8851L337.01 80.6111C337.088 78.7323 337.127 76.9318 337.127 73.3698C337.127 71.6867 337.166 63.506 337.166 61.6663C337.166 57.5564 337.049 55.4427 336.892 53.4074L337.088 53.1334L342.333 53.0551C343.116 53.0159 344.329 53.0159 345.386 53.0159C347.695 53.0159 350.161 53.0942 352.118 54.2293C353.567 55.0513 355.211 56.6953 355.211 59.5918C355.211 60.9618 354.819 64.876 349.378 66.2068C350.279 66.246 351.57 66.2851 352.98 66.9114C356.346 68.3988 356.698 71.3736 356.698 72.8218C356.698 76.4229 354.467 78.9672 351.336 80.1023C349.261 80.846 347.187 80.846 344.094 80.846ZM342.372 68.2031L341.433 68.2422C341.433 72.7044 341.433 73.3698 341.589 77.6363H342.333C345.269 77.6363 347.656 77.6755 349.183 77.0492C351.062 76.3446 352.118 74.7007 352.118 72.7436C352.118 68.1639 347.069 68.1248 345.19 68.1248C344.838 68.1248 344.486 68.1248 342.372 68.2031ZM341.433 56.2647V64.9543C344.955 64.9934 347.656 64.9543 349.3 63.6626C350.279 62.8406 350.905 61.5489 350.905 60.2572C350.905 59.2004 350.474 58.1827 349.809 57.4781C348.439 56.1473 346.012 56.1473 345.112 56.1473C343.859 56.1473 342.646 56.1864 341.433 56.2647ZM370.594 64.2889L370.32 64.4846C369.928 64.328 369.419 64.1323 368.754 64.1323C368.01 64.1323 367.462 64.4063 367.11 64.6411C365.505 65.7763 365.505 67.4985 365.505 71.5693C365.505 75.9924 365.622 78.3017 365.779 80.4937L365.583 80.7677C363.744 80.7677 363.313 80.8068 361.434 80.8851L361.239 80.6503C361.278 77.6755 361.317 74.9747 361.317 71.3344C361.317 65.0717 361.199 63.4669 360.965 61.1966L361.199 60.9226C362.687 60.6487 363.626 60.4529 365.27 60.1398L365.505 60.3747L365.309 63.7017C365.779 62.4492 366.758 59.9441 370.085 59.9441C370.594 59.9441 370.868 59.9832 371.181 60.0615L371.337 60.2964C370.946 62.1752 370.868 62.5666 370.594 64.2889ZM389.186 68.8294V72.7044C389.186 77.558 389.225 77.9886 389.421 80.5328L389.225 80.7286C387.386 80.7677 387.073 80.8068 385.272 80.8851L385.116 80.6503L385.155 79.2412C384.411 79.8283 382.65 81.2374 379.675 81.2374C375.761 81.2374 373.021 78.5757 373.021 74.7007C373.021 69.4556 377.405 67.7725 384.45 66.9505L385.116 66.8722C385.116 65.8154 385.116 65.0717 384.763 64.4454C384.372 63.7409 383.472 62.9972 381.514 62.9972C378.97 62.9972 377.209 63.78 375.565 64.4846L375.252 64.2889C375.33 62.4883 375.33 62.2535 375.369 61.4315L375.604 61.1966C377.796 60.4138 380.066 59.9049 382.376 59.9049C385.272 59.9049 388.09 60.8835 388.912 63.9366C389.186 65.0326 389.186 67.1854 389.186 68.8294ZM385.155 69.7688L384.802 69.847C380.849 70.4342 377.17 70.9822 377.17 74.4658C377.17 74.6615 377.17 78.0278 380.888 78.0278C383.315 78.0278 384.724 76.6969 385.155 76.3055V69.7688ZM412.221 80.4937L411.986 80.7286C410.107 80.7677 409.872 80.7677 408.072 80.8851L407.798 80.6111C407.798 80.1806 407.837 79.75 407.837 79.3194C407.876 77.4015 407.876 75.4835 407.876 73.5655C407.876 67.5377 407.837 67.1462 407.641 66.3243C406.898 63.3495 404.666 63.3495 404.118 63.3495C401.77 63.3495 399.969 64.7194 398.913 65.5414C398.873 72.3521 398.952 75.9141 399.226 80.4937L398.991 80.7286C397.073 80.7677 396.76 80.7677 394.881 80.8851L394.685 80.6111C394.724 78.4192 394.803 76.3055 394.803 73.409C394.803 67.1462 394.529 63.8192 394.333 61.1966L394.568 60.9226C396.525 60.5704 396.877 60.4921 398.717 60.1398L398.991 60.4138L398.952 62.4492C399.969 61.7446 402.396 60.0224 405.841 60.0224C406.819 60.0224 408.033 60.1789 409.089 60.7661C410.107 61.3532 410.929 62.2535 411.36 63.3103C411.869 64.4846 411.908 65.6588 411.947 68.0857V72.6653C412.064 77.2449 412.103 79.0063 412.221 80.4937ZM431.871 75.9532L432.184 76.1098C432.027 77.7929 431.988 77.9886 431.871 79.5934L431.597 79.8674C430.461 80.4154 428.935 81.1983 426.195 81.1983C420.284 81.1983 416.449 76.9318 416.449 70.8256C416.449 64.602 420.206 59.9049 426.273 59.9049C428.817 59.9049 430.618 60.7269 431.636 61.1575L431.792 61.4315C431.636 62.8406 431.597 63.3495 431.518 64.5237L431.205 64.6803C429.913 63.7409 428.426 63.1537 426.86 63.1537C423.612 63.1537 420.754 65.6588 420.754 70.669C420.754 75.9924 423.768 77.9103 426.821 77.9103C429.483 77.9103 431.127 76.5404 431.871 75.9532ZM452.968 80.4937L452.734 80.7286C450.855 80.7677 450.62 80.7677 448.819 80.8851L448.545 80.6111L448.584 79.3194C448.624 77.2841 448.624 75.2095 448.624 73.1741L448.584 68.9859C448.584 68.0857 448.584 67.1854 448.389 66.3243C447.958 64.5237 446.862 63.3495 444.866 63.3495C442.635 63.3495 440.913 64.602 439.621 65.5414C439.582 72.3521 439.66 75.9141 439.895 80.4937L439.699 80.7286C437.899 80.7677 437.429 80.7677 435.511 80.8851L435.315 80.6111C435.394 77.832 435.511 74.3093 435.511 66.794C435.511 63.506 435.472 60.2181 435.433 56.9301C435.354 53.4856 435.237 52.3505 435.12 50.5891L435.315 50.3543C437.194 50.0411 437.82 49.9237 439.582 49.5323L439.817 49.8063C439.582 53.9945 439.582 58.2218 439.582 62.4492C440.834 61.6272 443.3 60.0224 446.588 60.0224C447.489 60.0224 448.389 60.1398 449.211 60.4921C450.972 61.1966 452.029 62.6058 452.42 64.2106C452.616 64.9934 452.616 65.4631 452.694 68.0857V72.6653L452.734 74.505C452.812 77.7929 452.812 78.3409 452.968 80.4937Z" fill="#00629B"/>
</svg>
